<svg id="svg" version="1.1" xmlns="http://www.w3.org/2000/svg" xmlns:xlink="http://www.w3.org/1999/xlink" width="400" height="299.8535871156662" viewBox="0, 0, 400,299.8535871156662"><g id="svgg"><path id="path0" d="M102.647 101.792 C 102.636 101.860,102.641 101.992,102.659 102.083 C 102.676 102.175,102.595 102.156,102.479 102.042 C 102.162 101.731,100.799 101.978,99.333 102.613 C 99.196 102.672,99.046 102.731,99.000 102.744 C 98.490 102.882,98.167 103.051,98.167 103.178 C 98.167 103.263,98.050 103.333,97.907 103.333 C 97.753 103.333,97.695 103.412,97.766 103.526 C 97.840 103.645,97.812 103.673,97.693 103.599 C 97.491 103.475,96.500 103.976,96.500 104.203 C 96.500 104.275,96.422 104.333,96.326 104.333 C 96.231 104.333,96.062 104.409,95.951 104.502 C 95.841 104.594,95.543 104.825,95.290 105.015 C 95.037 105.205,94.870 105.424,94.918 105.502 C 94.966 105.580,94.918 105.698,94.810 105.764 C 94.681 105.844,94.656 105.806,94.737 105.651 C 94.804 105.522,94.703 105.593,94.514 105.809 C 94.324 106.025,94.207 106.263,94.254 106.339 C 94.300 106.415,94.251 106.531,94.144 106.598 C 94.010 106.680,93.993 106.644,94.090 106.484 C 94.210 106.285,94.189 106.284,93.949 106.479 C 93.794 106.605,93.667 106.811,93.667 106.937 C 93.667 107.063,93.602 107.167,93.523 107.167 C 93.058 107.167,90.460 112.358,90.589 113.028 C 90.621 113.196,90.586 113.333,90.510 113.333 C 90.287 113.333,90.200 114.133,90.400 114.337 C 90.534 114.474,90.520 114.509,90.348 114.470 C 90.103 114.414,89.619 115.693,89.454 116.835 C 89.407 117.155,89.278 117.925,89.167 118.547 C 89.055 119.169,89.003 119.825,89.050 120.006 C 89.100 120.198,89.067 120.292,88.971 120.232 C 88.869 120.169,88.823 120.412,88.851 120.863 C 88.876 121.267,88.853 121.669,88.801 121.757 C 88.616 122.068,88.660 125.375,88.852 125.606 C 88.992 125.775,88.992 125.833,88.853 125.833 C 88.668 125.833,88.742 127.905,88.948 128.500 C 88.995 128.637,89.066 129.122,89.104 129.576 C 89.143 130.030,89.229 130.442,89.295 130.492 C 89.362 130.542,89.437 130.906,89.462 131.301 C 89.557 132.789,91.468 137.476,91.876 137.223 C 91.968 137.167,92.006 137.224,91.961 137.352 C 91.845 137.676,92.145 138.200,92.367 138.062 C 92.479 137.993,92.504 138.025,92.431 138.144 C 92.275 138.395,93.303 139.705,93.540 139.558 C 93.649 139.491,93.669 139.528,93.591 139.654 C 93.427 139.919,94.100 140.558,94.377 140.398 C 94.491 140.333,94.528 140.341,94.460 140.416 C 94.273 140.623,94.660 141.000,95.062 141.003 C 95.321 141.004,95.356 141.043,95.194 141.147 C 95.028 141.252,95.123 141.382,95.566 141.656 C 95.893 141.858,96.249 141.969,96.356 141.903 C 96.487 141.822,96.507 141.854,96.415 142.003 C 96.315 142.164,96.355 142.194,96.565 142.114 C 96.728 142.051,96.809 142.072,96.753 142.162 C 96.490 142.587,99.820 143.729,101.358 143.741 C 101.967 143.746,102.432 143.806,102.390 143.875 C 102.259 144.090,103.921 144.011,104.158 143.792 C 104.337 143.625,104.359 143.625,104.265 143.792 C 104.187 143.930,104.266 144.000,104.500 144.000 C 104.694 144.000,104.819 143.944,104.778 143.875 C 104.736 143.806,105.499 143.735,106.473 143.717 C 107.541 143.697,108.268 143.614,108.303 143.507 C 108.335 143.411,108.428 143.372,108.509 143.422 C 108.690 143.534,111.898 142.981,111.964 142.826 C 111.990 142.765,112.215 142.748,112.464 142.787 C 112.826 142.845,112.867 142.822,112.667 142.675 C 112.470 142.530,112.515 142.513,112.873 142.596 C 113.594 142.763,115.328 141.730,115.059 141.294 C 115.016 141.224,115.068 141.167,115.175 141.167 C 115.282 141.167,115.324 141.051,115.270 140.908 C 115.213 140.760,115.241 140.693,115.335 140.751 C 115.426 140.807,115.500 140.699,115.500 140.510 C 115.500 140.321,115.425 140.167,115.333 140.167 C 115.242 140.167,115.176 140.110,115.186 140.042 C 115.251 139.632,115.145 139.327,114.974 139.433 C 114.866 139.500,114.827 139.479,114.885 139.385 C 114.941 139.294,114.923 138.963,114.843 138.651 C 114.764 138.339,114.652 137.874,114.595 137.618 C 114.537 137.362,114.417 137.198,114.328 137.253 C 114.239 137.308,114.167 137.280,114.167 137.190 C 114.167 137.101,114.258 136.997,114.369 136.960 C 114.481 136.923,114.580 136.636,114.589 136.321 C 114.598 136.007,114.706 135.563,114.830 135.333 C 115.043 134.938,115.039 134.929,114.745 135.167 C 114.516 135.352,114.536 135.280,114.822 134.889 C 115.061 134.563,115.215 134.107,115.226 133.695 C 115.236 133.328,115.303 133.065,115.375 133.109 C 115.448 133.154,115.507 132.979,115.506 132.720 C 115.505 132.462,115.548 131.907,115.600 131.488 C 115.773 130.109,114.963 128.236,114.206 128.262 C 114.010 128.269,113.886 128.217,113.929 128.146 C 113.973 128.076,113.752 127.947,113.438 127.861 C 112.510 127.604,110.200 128.182,110.704 128.545 C 110.853 128.652,110.825 128.668,110.611 128.599 C 110.276 128.490,109.597 128.875,109.788 129.065 C 109.853 129.131,109.788 129.139,109.644 129.084 C 109.496 129.027,108.836 129.271,108.131 129.641 C 105.138 131.218,102.983 130.878,101.986 128.672 C 101.766 128.184,101.539 127.891,101.432 127.955 C 101.332 128.015,101.346 127.945,101.464 127.800 C 101.638 127.584,101.638 127.493,101.464 127.309 C 101.346 127.185,101.225 126.821,101.194 126.500 C 101.163 126.179,101.068 125.892,100.984 125.861 C 100.900 125.830,100.873 125.738,100.924 125.655 C 100.975 125.573,100.926 124.574,100.816 123.435 C 100.403 119.180,101.570 114.007,103.202 112.858 C 103.378 112.734,103.481 112.523,103.430 112.391 C 103.379 112.257,103.410 112.194,103.501 112.250 C 103.590 112.306,103.996 112.123,104.403 111.843 C 104.809 111.563,105.339 111.260,105.581 111.168 C 105.861 111.061,105.977 110.925,105.902 110.792 C 105.810 110.629,105.832 110.627,106.001 110.784 C 106.141 110.913,106.317 110.931,106.496 110.835 C 107.092 110.517,108.554 110.600,109.333 110.997 C 110.073 111.374,111.070 112.120,111.097 112.316 C 111.104 112.371,111.164 112.605,111.230 112.836 C 111.304 113.094,111.253 113.479,111.098 113.836 C 110.960 114.155,110.843 114.347,110.840 114.263 C 110.836 114.178,110.665 114.258,110.458 114.440 C 110.252 114.623,109.872 114.903,109.615 115.063 C 108.769 115.589,109.253 116.108,110.630 116.150 C 111.304 116.171,113.229 115.236,113.064 114.969 C 112.994 114.855,113.024 114.828,113.139 114.900 C 113.449 115.091,114.625 113.709,114.950 112.772 C 115.444 111.346,115.107 107.500,114.488 107.500 C 114.403 107.500,114.342 107.444,114.353 107.375 C 114.453 106.744,113.726 105.487,113.470 105.847 C 113.332 106.041,113.317 106.035,113.387 105.813 C 113.488 105.495,112.586 104.333,112.238 104.333 C 112.107 104.333,112.000 104.259,112.000 104.169 C 112.000 103.900,110.705 103.123,110.484 103.260 C 110.358 103.338,110.325 103.315,110.396 103.200 C 110.548 102.955,109.621 102.482,108.917 102.445 C 108.614 102.430,108.396 102.370,108.430 102.312 C 108.588 102.053,106.239 101.666,105.875 101.891 C 105.758 101.963,105.667 101.942,105.667 101.843 C 105.667 101.641,102.679 101.590,102.647 101.792 M192.556 104.958 C 192.597 105.027,192.193 105.094,191.658 105.106 C 190.540 105.132,189.687 105.607,190.050 106.000 C 190.207 106.170,190.202 106.188,190.025 106.088 C 189.670 105.886,190.097 106.599,190.500 106.881 C 190.682 107.009,190.779 107.166,190.715 107.230 C 190.650 107.294,190.763 107.390,190.964 107.442 C 191.165 107.495,191.283 107.613,191.227 107.704 C 191.170 107.796,191.194 107.918,191.279 107.977 C 192.007 108.476,192.824 111.839,192.942 114.818 L 193.043 117.385 191.843 117.285 C 190.471 117.170,187.946 117.411,187.862 117.665 C 187.830 117.759,187.735 117.792,187.649 117.739 C 187.437 117.608,186.333 117.986,186.333 118.189 C 186.333 118.279,186.247 118.300,186.141 118.234 C 186.036 118.169,185.848 118.254,185.725 118.423 C 185.601 118.592,185.500 118.677,185.500 118.611 C 185.500 118.365,184.607 119.089,184.311 119.576 C 184.140 119.855,184.001 120.018,184.001 119.938 C 184.000 119.858,183.888 119.885,183.752 119.998 C 183.615 120.112,183.552 120.283,183.611 120.378 C 183.673 120.479,183.637 120.502,183.525 120.432 C 183.414 120.363,183.284 120.436,183.220 120.602 C 183.159 120.761,182.969 121.031,182.798 121.202 C 182.628 121.372,182.534 121.586,182.590 121.677 C 182.646 121.767,182.598 121.821,182.484 121.796 C 182.213 121.736,180.976 124.875,180.942 125.707 C 180.928 126.051,180.873 126.332,180.819 126.332 C 180.766 126.333,180.721 126.427,180.720 126.542 C 180.718 126.656,180.637 127.125,180.540 127.583 C 180.442 128.042,180.387 128.623,180.417 128.875 C 180.446 129.127,180.409 129.333,180.333 129.333 C 180.258 129.333,180.179 129.840,180.158 130.458 C 180.079 132.778,180.150 135.000,180.302 135.000 C 180.365 135.000,180.428 135.169,180.441 135.375 C 180.624 138.175,182.902 140.797,185.230 140.887 C 185.636 140.903,185.938 140.966,185.900 141.028 C 185.707 141.339,188.714 141.370,190.833 141.078 C 191.063 141.046,191.588 140.973,192.000 140.915 C 192.794 140.804,194.500 140.069,194.500 139.839 C 194.500 139.764,194.616 139.658,194.759 139.603 C 194.901 139.548,194.976 139.570,194.926 139.651 C 194.593 140.191,196.220 140.416,200.713 140.453 C 206.464 140.499,206.946 140.333,205.392 138.843 C 204.939 138.409,204.350 137.635,204.082 137.123 C 203.814 136.611,203.536 136.228,203.466 136.271 C 203.395 136.315,203.382 136.233,203.438 136.089 C 203.493 135.945,203.447 135.472,203.335 135.039 C 203.224 134.605,203.102 133.912,203.065 133.500 C 203.027 133.087,202.954 132.421,202.902 132.020 C 202.770 131.013,202.789 119.796,202.930 114.896 C 202.993 112.684,202.990 110.786,202.923 110.677 C 202.856 110.569,202.781 110.101,202.756 109.638 C 202.731 109.175,202.644 108.749,202.564 108.690 C 202.483 108.631,202.390 108.396,202.358 108.167 C 202.273 107.563,202.026 107.167,201.734 107.167 C 201.595 107.167,201.526 107.092,201.583 107.001 C 201.888 106.507,199.844 105.397,198.035 105.074 C 196.685 104.833,192.426 104.743,192.556 104.958 M115.579 108.566 C 115.210 108.836,115.337 109.285,116.106 110.417 C 116.479 110.967,116.886 111.698,117.009 112.042 C 117.133 112.385,117.298 112.667,117.377 112.667 C 117.455 112.667,117.480 112.732,117.431 112.811 C 117.382 112.890,117.454 113.509,117.592 114.186 C 117.735 114.889,117.878 116.775,117.925 118.583 C 117.971 120.325,118.033 122.125,118.064 122.583 C 118.094 123.042,118.074 123.304,118.020 123.167 C 117.966 123.029,117.837 124.454,117.733 126.333 C 117.627 128.257,117.608 129.819,117.689 129.908 C 117.896 130.135,117.867 130.374,117.650 130.240 C 117.377 130.071,117.550 138.379,117.837 139.202 C 117.955 139.542,118.115 139.782,118.191 139.735 C 118.267 139.688,118.293 139.747,118.248 139.866 C 118.034 140.434,119.557 141.856,120.591 142.054 C 120.770 142.088,121.029 142.159,121.167 142.211 C 121.457 142.320,121.589 142.334,122.866 142.387 C 123.947 142.431,124.231 142.587,123.641 142.811 C 123.100 143.017,122.827 143.371,122.907 143.762 C 123.033 144.370,123.525 145.171,123.705 145.059 C 123.812 144.994,123.836 145.027,123.766 145.141 C 123.701 145.247,123.726 145.333,123.823 145.333 C 123.921 145.333,123.983 145.390,123.963 145.458 C 123.942 145.527,124.196 146.002,124.526 146.513 C 124.856 147.025,125.178 147.606,125.241 147.805 C 125.304 148.004,125.472 148.167,125.615 148.167 C 125.817 148.167,125.832 148.218,125.683 148.397 C 125.469 148.655,125.769 150.148,126.081 150.372 C 126.185 150.448,126.166 150.496,126.028 150.497 C 125.784 150.500,125.921 151.538,126.179 151.636 C 126.255 151.665,126.240 151.890,126.145 152.136 C 125.969 152.595,125.894 153.307,125.759 155.784 C 125.716 156.567,125.640 157.248,125.591 157.298 C 125.541 157.348,125.500 158.868,125.500 160.676 C 125.500 163.929,125.549 164.362,126.287 167.623 C 126.333 167.828,126.431 167.959,126.504 167.914 C 126.576 167.870,126.598 167.978,126.551 168.155 C 126.448 168.550,126.797 169.667,127.023 169.667 C 127.113 169.667,127.145 169.734,127.094 169.815 C 126.813 170.271,129.493 174.769,129.943 174.596 C 130.085 174.542,130.140 174.576,130.076 174.679 C 129.938 174.902,131.267 176.217,131.539 176.126 C 131.651 176.088,131.857 176.185,131.997 176.341 C 132.431 176.827,133.694 177.203,135.095 177.263 C 135.834 177.295,136.584 177.380,136.761 177.452 C 137.302 177.673,142.851 177.568,143.417 177.326 C 143.692 177.209,143.973 177.125,144.042 177.140 C 144.110 177.155,144.167 177.099,144.167 177.016 C 144.167 176.933,144.305 176.901,144.474 176.945 C 145.037 177.092,145.302 176.088,144.895 175.351 C 144.713 175.020,144.469 174.771,144.353 174.796 C 144.237 174.821,144.186 174.770,144.240 174.682 C 144.295 174.595,144.150 174.244,143.919 173.904 C 143.406 173.148,143.037 171.966,142.832 170.417 C 142.676 169.242,142.638 166.822,142.784 167.387 C 142.832 167.573,142.958 167.654,143.109 167.597 C 143.288 167.528,143.329 167.585,143.258 167.809 C 143.204 167.978,143.386 168.671,143.663 169.350 C 143.939 170.028,144.166 170.607,144.166 170.635 C 144.166 170.663,144.253 170.633,144.359 170.567 C 144.476 170.495,144.506 170.522,144.436 170.635 C 144.312 170.836,144.984 172.272,145.582 173.083 C 145.785 173.358,145.999 173.719,146.058 173.886 C 146.120 174.061,146.246 174.138,146.358 174.068 C 146.471 173.998,146.507 174.021,146.444 174.122 C 146.329 174.308,146.849 174.975,147.916 176.008 C 148.796 176.861,149.568 177.028,152.167 176.928 C 153.313 176.884,155.170 176.848,156.295 176.848 C 157.940 176.848,158.436 176.792,158.831 176.558 C 159.344 176.255,159.621 175.833,159.308 175.833 C 159.188 175.833,159.197 175.747,159.334 175.582 C 159.506 175.376,159.463 175.211,159.096 174.656 C 157.953 172.929,157.764 172.448,157.578 170.798 C 157.397 169.198,157.547 167.231,157.889 166.701 C 157.971 166.575,157.944 166.383,157.824 166.239 C 157.711 166.103,157.667 165.944,157.726 165.885 C 157.785 165.826,157.833 165.878,157.833 166.000 C 157.833 166.423,158.006 166.046,158.261 165.067 C 158.402 164.527,158.483 163.953,158.441 163.792 C 158.399 163.631,158.424 163.537,158.497 163.582 C 158.628 163.663,158.820 162.857,158.884 161.958 C 158.902 161.706,158.963 161.500,159.019 161.500 C 159.160 161.500,159.571 160.313,159.913 158.917 C 160.071 158.275,160.304 157.514,160.433 157.225 C 160.561 156.936,160.667 156.582,160.667 156.439 C 160.667 156.296,160.782 155.838,160.923 155.422 C 161.065 155.006,161.196 154.441,161.215 154.167 C 161.234 153.892,161.313 153.667,161.389 153.667 C 161.465 153.667,161.494 153.573,161.453 153.458 C 161.412 153.344,161.442 153.126,161.520 152.974 C 161.598 152.823,161.692 152.326,161.730 151.870 C 161.769 151.414,161.889 150.874,161.998 150.671 C 162.560 149.620,162.349 144.457,161.735 144.221 C 161.617 144.176,161.567 144.020,161.623 143.874 C 161.699 143.675,161.653 143.636,161.437 143.719 C 161.266 143.785,161.191 143.763,161.251 143.665 C 161.307 143.574,161.269 143.500,161.167 143.500 C 161.064 143.500,161.020 143.435,161.070 143.356 C 161.206 143.134,160.589 142.653,160.101 142.601 C 159.862 142.576,159.616 142.505,159.555 142.444 C 159.348 142.237,158.000 142.322,157.997 142.542 C 157.995 142.708,157.968 142.708,157.863 142.543 C 157.628 142.173,151.248 142.541,150.691 142.956 C 150.149 143.361,150.066 144.066,150.509 144.509 C 150.688 144.688,150.833 144.979,150.833 145.157 C 150.833 145.335,150.900 145.521,150.981 145.572 C 151.062 145.622,151.178 145.926,151.239 146.248 C 151.299 146.570,151.420 146.833,151.508 146.833 C 151.595 146.833,151.658 146.890,151.647 146.958 C 151.599 147.263,151.683 147.399,151.802 147.211 C 151.879 147.091,151.933 147.264,151.934 147.628 C 151.934 147.970,151.949 148.813,151.967 149.500 C 152.004 150.953,151.968 151.212,151.622 152.000 C 151.481 152.321,151.339 152.731,151.308 152.911 C 151.276 153.091,151.089 153.579,150.892 153.994 C 150.641 154.525,150.585 154.812,150.704 154.958 C 150.826 155.108,150.805 155.167,150.629 155.167 C 150.494 155.167,150.303 155.335,150.203 155.542 C 150.050 155.859,150.021 155.768,150.011 154.948 C 150.004 154.289,149.942 154.016,149.817 154.094 C 149.690 154.172,149.693 154.095,149.826 153.847 C 149.951 153.614,149.974 153.211,149.893 152.702 C 149.824 152.270,149.786 151.848,149.809 151.765 C 149.832 151.681,149.774 151.418,149.680 151.181 C 149.586 150.944,149.472 150.531,149.427 150.264 C 149.382 149.996,149.259 149.724,149.154 149.659 C 149.016 149.573,149.024 149.520,149.185 149.466 C 149.497 149.362,148.045 146.395,147.318 145.651 C 147.013 145.339,146.760 145.046,146.757 145.000 C 146.753 144.954,146.694 144.935,146.625 144.958 C 146.556 144.981,146.519 144.936,146.542 144.858 C 146.605 144.642,145.275 143.583,144.642 143.344 C 144.335 143.228,143.933 143.069,143.750 142.990 C 142.913 142.630,137.700 142.317,137.899 142.638 C 137.977 142.765,137.924 142.794,137.742 142.724 C 137.586 142.664,137.403 142.719,137.319 142.851 C 137.201 143.037,137.171 143.025,137.169 142.792 C 137.166 142.413,136.542 142.406,136.009 142.779 C 135.789 142.933,135.670 142.963,135.742 142.846 C 135.833 142.699,135.779 142.653,135.567 142.693 C 134.432 142.912,134.774 144.193,136.608 146.597 C 137.906 148.298,139.136 150.733,138.643 150.625 C 138.538 150.602,138.383 150.835,138.300 151.143 C 138.120 151.806,138.257 152.056,138.486 151.483 C 138.595 151.209,138.649 151.172,138.656 151.365 C 138.662 151.520,138.590 151.694,138.497 151.752 C 138.404 151.809,138.371 151.925,138.423 152.010 C 138.475 152.094,138.410 152.122,138.279 152.071 C 138.127 152.013,138.006 152.119,137.944 152.366 C 137.891 152.578,137.526 153.345,137.132 154.069 L 136.417 155.387 136.369 153.412 C 136.340 152.177,136.246 151.344,136.119 151.187 C 135.959 150.988,135.960 150.962,136.125 151.061 C 136.256 151.140,136.333 151.090,136.333 150.927 C 136.333 150.784,136.254 150.667,136.157 150.667 C 136.060 150.667,136.019 150.605,136.065 150.529 C 136.170 150.360,135.756 148.529,135.577 148.367 C 135.505 148.303,135.495 148.385,135.555 148.550 C 135.617 148.724,135.596 148.809,135.504 148.752 C 135.416 148.698,135.385 148.449,135.435 148.200 C 135.539 147.681,134.750 145.929,134.485 146.092 C 134.397 146.147,134.336 146.130,134.349 146.054 C 134.412 145.693,134.287 145.450,133.718 144.820 C 133.039 144.068,131.734 143.111,131.388 143.111 C 131.266 143.111,131.167 143.044,131.167 142.962 C 131.167 142.881,131.092 142.860,131.000 142.917 C 130.908 142.973,130.833 142.953,130.833 142.871 C 130.833 142.789,130.740 142.713,130.625 142.703 C 130.510 142.692,129.978 142.572,129.443 142.436 C 128.223 142.127,127.241 142.049,127.280 142.264 C 127.296 142.355,127.165 142.429,126.988 142.429 C 126.811 142.429,126.667 142.382,126.667 142.324 C 126.667 142.131,127.414 141.881,127.809 141.942 C 129.240 142.165,131.253 140.226,129.877 139.950 C 129.622 139.899,129.194 139.669,128.926 139.438 C 128.657 139.208,128.375 139.058,128.298 139.105 C 128.221 139.153,128.179 139.092,128.204 138.971 C 128.229 138.849,128.159 138.768,128.048 138.790 C 127.931 138.813,127.886 138.725,127.940 138.581 C 127.993 138.445,127.953 138.333,127.851 138.333 C 127.750 138.333,127.667 138.183,127.667 138.000 C 127.667 137.817,127.604 137.667,127.528 137.667 C 127.452 137.667,127.391 137.535,127.391 137.375 C 127.395 136.533,127.320 135.989,127.208 136.058 C 127.053 136.154,127.041 127.449,127.196 127.331 C 127.476 127.119,127.553 114.947,127.281 113.895 C 127.004 112.821,125.843 110.434,125.620 110.481 C 125.549 110.496,125.322 110.312,125.116 110.072 C 124.909 109.832,124.544 109.624,124.303 109.610 C 124.062 109.595,123.895 109.535,123.932 109.476 C 124.316 108.853,116.371 107.987,115.579 108.566 M208.915 109.165 C 208.972 109.257,208.910 109.288,208.774 109.236 C 208.376 109.084,207.186 109.958,206.658 110.790 C 206.160 111.575,205.859 114.197,206.347 113.500 C 206.484 113.305,206.499 113.333,206.415 113.628 C 206.109 114.717,209.179 116.964,210.500 116.618 C 210.684 116.570,210.833 116.610,210.833 116.707 C 210.833 116.986,213.864 116.747,214.570 116.412 C 215.160 116.132,215.386 115.667,214.932 115.667 C 214.780 115.667,214.728 115.550,214.785 115.334 C 214.833 115.150,214.751 114.816,214.603 114.589 C 214.455 114.363,214.333 114.082,214.333 113.964 C 214.331 113.585,213.006 111.093,212.645 110.792 C 212.453 110.631,212.355 110.500,212.427 110.500 C 212.499 110.500,212.380 110.310,212.162 110.078 C 211.944 109.847,211.665 109.696,211.541 109.743 C 211.417 109.791,211.363 109.754,211.420 109.661 C 211.477 109.569,211.259 109.382,210.934 109.247 C 210.267 108.968,208.756 108.906,208.915 109.165 M130.844 115.111 C 130.427 115.403,130.301 119.164,130.708 119.169 C 130.866 119.171,130.863 119.206,130.696 119.312 C 130.222 119.612,131.555 123.347,132.037 123.069 C 132.154 123.002,132.196 123.006,132.131 123.079 C 131.956 123.272,132.304 123.833,132.599 123.833 C 132.739 123.833,132.812 123.899,132.763 123.979 C 132.357 124.636,135.278 125.563,137.750 125.560 L 139.583 125.559 138.583 126.021 C 138.033 126.275,137.448 126.487,137.282 126.492 C 137.097 126.497,137.027 126.575,137.099 126.692 C 137.176 126.817,137.145 126.839,137.011 126.757 C 136.764 126.604,134.167 127.313,134.167 127.533 C 134.167 127.617,134.100 127.645,134.019 127.595 C 133.803 127.462,132.818 127.840,132.926 128.014 C 132.976 128.096,132.920 128.126,132.800 128.081 C 132.486 127.963,131.459 128.632,131.601 128.862 C 131.668 128.971,131.645 129.006,131.545 128.945 C 131.113 128.677,129.193 131.227,129.407 131.784 C 129.462 131.929,129.424 131.973,129.307 131.901 C 129.178 131.821,129.145 131.922,129.202 132.220 C 129.248 132.460,129.219 132.615,129.137 132.565 C 129.054 132.514,129.000 133.228,129.014 134.195 C 129.040 135.987,129.387 137.590,129.706 137.392 C 129.813 137.326,129.836 137.361,129.764 137.477 C 129.695 137.588,129.902 138.026,130.240 138.486 C 130.791 139.237,130.958 139.381,131.417 139.501 C 131.508 139.525,131.682 139.686,131.803 139.859 C 131.924 140.031,132.093 140.129,132.178 140.076 C 132.263 140.024,132.333 140.052,132.333 140.139 C 132.333 140.646,133.742 140.883,136.667 140.869 C 139.823 140.853,141.934 139.290,141.830 137.045 C 141.786 136.086,141.819 135.833,141.990 135.833 C 142.077 135.833,142.116 135.995,142.078 136.194 C 141.978 136.714,142.337 138.018,142.545 137.889 C 142.649 137.825,142.668 137.863,142.593 137.985 C 142.439 138.233,142.976 138.868,143.215 138.720 C 143.308 138.662,143.335 138.697,143.273 138.796 C 142.556 139.956,150.930 140.838,153.851 139.911 C 154.452 139.720,154.558 139.212,154.063 138.888 C 153.820 138.729,153.518 138.351,153.392 138.049 C 153.265 137.747,153.084 137.500,152.988 137.500 C 152.892 137.500,152.852 137.437,152.900 137.361 C 153.027 137.155,152.638 135.998,152.476 136.098 C 152.400 136.145,152.376 136.083,152.423 135.961 C 152.470 135.838,152.430 135.215,152.333 134.577 C 152.237 133.939,152.119 131.579,152.072 129.333 C 151.959 123.938,151.669 120.876,151.291 121.109 C 151.174 121.182,151.149 121.119,151.221 120.932 C 151.352 120.590,151.053 119.948,150.827 120.087 C 150.739 120.142,150.718 120.060,150.780 119.898 C 150.861 119.689,150.831 119.649,150.669 119.748 C 150.529 119.835,150.488 119.820,150.559 119.707 C 150.734 119.422,149.862 118.520,148.978 118.072 C 148.532 117.846,148.167 117.709,148.167 117.768 C 148.167 117.826,148.072 117.795,147.955 117.699 C 147.497 117.319,145.526 117.143,142.653 117.226 C 137.846 117.365,136.143 117.331,135.000 117.071 C 134.404 116.936,133.864 116.823,133.800 116.821 C 133.736 116.818,133.449 116.597,133.162 116.329 C 132.875 116.061,132.579 115.859,132.504 115.879 C 132.428 115.900,132.378 115.868,132.392 115.809 C 132.511 115.297,131.336 114.767,130.844 115.111 M220.174 115.745 C 219.966 116.001,220.005 117.713,220.226 117.990 C 220.362 118.162,220.363 118.199,220.229 118.118 C 220.038 118.004,219.952 118.773,220.123 119.060 C 220.170 119.139,220.224 119.476,220.243 119.810 C 220.439 123.346,222.759 125.427,226.750 125.648 C 228.590 125.750,228.714 125.777,228.297 125.987 C 228.048 126.113,227.891 126.291,227.948 126.383 C 228.005 126.476,227.969 126.501,227.868 126.438 C 227.767 126.376,226.928 126.624,226.004 126.990 C 225.080 127.357,224.029 127.736,223.670 127.833 C 223.310 127.930,222.899 128.125,222.758 128.266 C 222.616 128.408,222.500 128.477,222.500 128.419 C 222.500 128.362,222.275 128.447,222.000 128.610 C 221.725 128.772,221.500 128.968,221.500 129.046 C 221.500 129.123,221.425 129.140,221.333 129.083 C 221.132 128.959,219.459 130.632,219.583 130.832 C 219.630 130.909,219.612 130.997,219.543 131.027 C 218.520 131.481,218.207 135.584,219.055 137.417 C 219.720 138.855,221.339 140.389,221.856 140.069 C 221.973 139.997,222.007 140.020,221.941 140.127 C 221.450 140.922,227.285 141.255,228.917 140.525 C 230.033 140.026,231.136 138.837,231.272 137.986 C 231.397 137.203,231.587 137.144,231.727 137.844 C 231.794 138.176,231.898 138.313,232.024 138.235 C 232.143 138.162,232.173 138.188,232.102 138.303 C 231.958 138.536,232.480 139.366,232.689 139.236 C 232.773 139.184,232.821 139.241,232.796 139.363 C 232.717 139.744,234.709 140.627,235.957 140.763 C 237.570 140.939,243.479 140.551,243.958 140.238 C 244.482 139.895,244.436 139.726,243.594 138.884 C 243.188 138.477,242.852 138.111,242.847 138.071 C 242.818 137.808,242.268 137.187,242.137 137.268 C 242.050 137.322,242.001 137.263,242.031 137.136 C 242.060 137.010,241.958 136.608,241.806 136.245 C 241.339 135.133,241.293 134.951,241.215 133.917 C 241.173 133.367,241.089 132.898,241.028 132.875 C 240.967 132.852,240.933 130.921,240.952 128.583 C 240.972 126.246,240.931 124.333,240.861 124.333 C 240.791 124.333,240.764 124.073,240.801 123.755 C 240.878 123.094,240.540 121.500,240.322 121.500 C 240.242 121.500,240.212 121.406,240.255 121.292 C 240.363 121.006,239.260 119.239,239.010 119.296 C 238.899 119.321,238.853 119.270,238.907 119.182 C 239.047 118.956,238.077 118.256,236.908 117.739 C 235.412 117.078,233.494 116.891,230.713 117.136 C 229.450 117.248,228.173 117.338,227.875 117.336 C 227.577 117.335,227.333 117.403,227.333 117.488 C 227.333 117.583,227.128 117.584,226.801 117.491 C 226.509 117.407,226.002 117.343,225.676 117.349 C 225.350 117.355,224.583 117.211,223.971 117.029 C 223.359 116.846,222.815 116.740,222.762 116.793 C 222.710 116.846,222.667 116.797,222.667 116.685 C 222.667 116.572,222.580 116.534,222.474 116.599 C 222.359 116.671,222.327 116.645,222.395 116.535 C 222.688 116.061,220.539 115.296,220.174 115.745 M167.917 117.505 C 165.982 117.705,165.453 118.233,166.467 118.952 C 167.252 119.508,167.731 120.196,168.020 121.185 C 168.138 121.588,168.275 121.954,168.325 122.000 C 168.426 122.092,168.443 122.491,168.489 125.917 C 168.524 128.455,168.482 128.837,167.977 130.583 C 167.791 131.225,167.633 131.854,167.625 131.981 C 167.572 132.863,165.803 133.845,165.565 133.125 C 165.395 132.610,165.366 132.167,165.503 132.167 C 165.689 132.167,166.875 128.015,166.768 127.737 C 166.714 127.597,166.736 127.523,166.816 127.573 C 167.031 127.705,167.210 125.655,167.077 124.591 C 167.014 124.085,166.896 123.711,166.816 123.761 C 166.736 123.810,166.711 123.745,166.761 123.616 C 167.340 122.106,163.594 118.260,161.414 118.125 C 161.049 118.102,160.712 118.034,160.667 117.975 C 160.533 117.800,159.434 117.751,159.180 117.908 C 159.023 118.005,158.987 117.990,159.067 117.860 C 159.295 117.491,155.022 117.645,154.646 118.020 C 154.216 118.450,154.247 118.594,154.912 119.279 C 155.230 119.607,155.535 120.016,155.590 120.187 C 155.644 120.359,155.757 120.500,155.839 120.500 C 155.922 120.500,155.942 120.625,155.883 120.777 C 155.806 120.979,155.837 121.017,155.997 120.918 C 156.147 120.826,156.178 120.846,156.094 120.982 C 156.026 121.092,156.026 121.310,156.094 121.466 C 156.367 122.097,156.411 122.500,156.414 124.417 C 156.417 126.911,156.289 129.055,156.128 129.175 C 156.060 129.225,155.985 129.723,155.961 130.282 C 155.937 130.841,155.873 131.272,155.820 131.240 C 155.671 131.151,155.158 136.193,155.267 136.667 C 155.320 136.896,155.406 137.196,155.458 137.333 C 155.510 137.471,155.536 137.653,155.516 137.739 C 155.384 138.300,156.513 139.948,156.876 139.724 C 156.972 139.664,157.003 139.693,156.944 139.789 C 156.808 140.009,157.205 140.344,157.642 140.377 C 157.826 140.391,157.944 140.457,157.903 140.523 C 157.806 140.679,158.451 140.883,158.651 140.760 C 158.736 140.707,158.831 140.743,158.863 140.839 C 159.077 141.480,167.665 141.657,167.667 141.020 C 167.667 140.963,167.911 140.902,168.209 140.883 C 169.236 140.819,170.173 140.645,170.102 140.531 C 169.998 140.363,171.478 140.434,172.250 140.634 C 173.246 140.893,175.471 140.955,178.560 140.812 C 179.851 140.752,180.248 140.675,180.410 140.454 C 180.524 140.299,180.665 140.221,180.725 140.280 C 180.784 140.340,180.833 140.303,180.833 140.199 C 180.833 140.094,180.496 139.671,180.083 139.259 C 179.671 138.846,179.333 138.477,179.333 138.438 C 179.333 138.399,179.083 137.994,178.776 137.539 C 178.138 136.590,177.877 135.488,177.742 133.167 C 177.692 132.296,177.618 131.373,177.578 131.117 C 177.532 130.821,177.568 130.689,177.678 130.757 C 177.792 130.827,177.845 130.527,177.831 129.891 C 177.819 129.355,177.884 128.317,177.975 127.583 C 178.273 125.173,178.400 122.273,178.201 122.396 C 178.078 122.472,178.050 122.324,178.113 121.936 C 178.225 121.240,177.464 119.400,177.145 119.597 C 177.027 119.670,176.993 119.646,177.059 119.539 C 177.321 119.116,174.979 117.787,174.497 118.085 C 174.407 118.141,174.333 118.099,174.333 117.992 C 174.333 117.885,174.223 117.840,174.089 117.892 C 173.954 117.943,173.805 117.922,173.758 117.846 C 173.664 117.695,172.728 117.566,170.520 117.400 C 169.365 117.313,169.147 117.335,169.260 117.523 C 169.366 117.697,169.342 117.710,169.157 117.576 C 169.012 117.471,168.519 117.442,167.917 117.505 M206.283 117.439 C 206.225 117.497,206.006 117.563,205.797 117.585 C 205.588 117.606,205.331 117.634,205.226 117.645 C 204.637 117.711,205.563 120.000,206.178 120.000 C 206.274 120.000,206.312 120.067,206.261 120.149 C 206.210 120.231,206.278 120.606,206.411 120.983 C 206.927 122.448,207.250 127.472,206.925 129.000 C 206.767 129.744,206.612 136.283,206.744 136.605 C 206.815 136.776,206.892 137.106,206.914 137.338 C 207.024 138.464,208.622 140.254,209.199 139.897 C 209.312 139.827,209.338 139.857,209.266 139.974 C 209.192 140.094,209.277 140.176,209.490 140.192 C 209.679 140.205,209.927 140.224,210.042 140.233 C 210.156 140.243,210.291 140.304,210.341 140.371 C 210.735 140.897,218.901 141.014,218.577 140.489 C 218.531 140.415,218.669 140.386,218.884 140.425 C 219.407 140.520,219.921 140.135,219.776 139.757 C 219.708 139.580,219.563 139.504,219.407 139.564 C 219.265 139.618,219.185 139.605,219.229 139.534 C 219.273 139.463,218.864 138.847,218.321 138.165 C 217.778 137.484,217.333 136.863,217.333 136.786 C 217.333 136.710,217.256 136.694,217.163 136.753 C 217.069 136.811,217.009 136.796,217.030 136.721 C 217.052 136.645,216.897 136.074,216.686 135.452 C 216.475 134.830,216.279 134.192,216.251 134.035 C 216.037 132.849,215.971 131.518,215.932 127.583 C 215.907 125.108,215.843 122.933,215.789 122.750 C 215.736 122.567,215.686 122.281,215.679 122.115 C 215.672 121.949,215.610 121.848,215.542 121.890 C 215.473 121.933,215.409 121.768,215.400 121.525 C 215.382 121.047,214.608 119.781,214.437 119.952 C 214.380 120.009,214.333 119.958,214.333 119.839 C 214.333 119.308,211.771 117.860,211.211 118.075 C 211.055 118.135,210.984 118.127,211.055 118.057 C 211.268 117.843,208.828 117.339,207.569 117.336 C 206.920 117.335,206.341 117.381,206.283 117.439 M190.993 125.106 C 191.247 125.256,191.583 125.595,191.739 125.859 C 191.896 126.125,192.103 126.289,192.204 126.227 C 192.305 126.164,192.337 126.192,192.277 126.289 C 192.218 126.385,192.314 126.791,192.491 127.191 C 192.809 127.909,192.882 128.320,193.090 130.555 C 193.194 131.672,193.190 131.691,192.848 131.508 C 192.657 131.405,192.500 131.239,192.500 131.138 C 192.500 130.915,191.715 130.167,191.482 130.167 C 191.389 130.167,191.355 130.100,191.405 130.018 C 191.456 129.936,191.198 129.599,190.832 129.269 C 190.466 128.938,190.167 128.602,190.167 128.521 C 190.167 128.440,190.042 128.271,189.890 128.145 C 188.200 126.747,189.184 124.037,190.993 125.106 M141.803 130.708 C 141.723 131.190,141.692 132.483,141.735 133.583 C 141.778 134.683,141.774 135.451,141.727 135.290 C 141.680 135.128,141.573 135.038,141.489 135.090 C 141.406 135.142,141.377 135.080,141.426 134.954 C 141.548 134.635,140.489 133.144,139.900 132.805 C 139.260 132.438,138.569 132.346,138.629 132.637 C 138.654 132.759,138.598 132.811,138.504 132.753 C 138.278 132.613,138.284 133.051,138.512 133.278 C 138.610 133.376,138.716 133.597,138.749 133.770 C 138.781 133.942,138.820 134.083,138.834 134.083 C 138.975 134.083,138.901 135.204,138.733 135.625 C 138.515 136.171,138.274 136.309,138.082 135.997 C 138.024 135.904,137.923 135.861,137.856 135.902 C 137.790 135.943,137.724 135.821,137.710 135.630 C 137.695 135.440,137.613 135.213,137.526 135.126 C 137.427 135.027,137.427 134.756,137.526 134.399 C 137.613 134.085,137.630 133.736,137.565 133.623 C 137.500 133.509,137.509 133.473,137.584 133.542 C 137.660 133.610,137.960 133.235,138.250 132.708 C 138.859 131.604,140.326 130.321,141.287 130.052 C 141.633 129.955,141.924 129.866,141.933 129.854 C 141.943 129.843,141.884 130.227,141.803 130.708 M231.541 130.753 C 231.584 130.975,231.554 131.117,231.476 131.068 C 231.397 131.020,231.333 131.804,231.333 132.810 C 231.333 134.117,231.393 134.663,231.542 134.723 C 231.666 134.773,231.633 134.812,231.458 134.820 C 231.298 134.827,231.167 134.735,231.167 134.616 C 231.167 133.597,228.531 131.959,228.215 132.781 C 228.089 133.109,228.666 135.187,228.851 135.072 C 228.933 135.022,228.930 135.164,228.843 135.390 C 228.758 135.615,228.729 135.840,228.779 135.890 C 228.915 136.026,227.796 136.287,227.452 136.200 C 227.288 136.158,227.193 136.085,227.242 136.036 C 227.291 135.987,227.267 135.865,227.189 135.765 C 226.896 135.387,226.683 134.510,226.858 134.402 C 226.952 134.343,226.992 134.154,226.947 133.981 C 226.902 133.808,226.920 133.667,226.989 133.667 C 227.057 133.667,227.199 133.479,227.303 133.250 C 227.592 132.615,228.782 131.395,229.335 131.166 C 229.607 131.053,229.781 130.883,229.722 130.788 C 229.660 130.687,229.696 130.665,229.809 130.735 C 230.033 130.873,230.706 130.699,230.602 130.530 C 230.564 130.468,230.742 130.402,230.998 130.383 C 231.372 130.356,231.480 130.430,231.541 130.753 M162.352 142.846 C 161.873 143.138,161.832 143.215,162.027 143.455 C 162.185 143.651,162.190 143.694,162.042 143.605 C 161.666 143.380,161.817 143.927,162.322 144.625 C 162.591 144.996,162.892 145.350,162.992 145.412 C 163.091 145.473,163.134 145.585,163.086 145.662 C 163.039 145.738,163.225 146.228,163.500 146.751 C 163.775 147.273,164.000 147.847,164.000 148.027 C 164.000 148.206,164.056 148.319,164.125 148.278 C 164.194 148.236,164.269 148.709,164.293 149.329 C 164.316 149.949,164.398 150.792,164.475 151.203 C 164.552 151.615,164.579 153.743,164.535 155.934 C 164.492 158.124,164.435 161.904,164.409 164.333 C 164.383 166.762,164.314 169.600,164.257 170.640 C 164.189 171.854,164.210 172.493,164.314 172.429 C 164.404 172.373,164.524 172.404,164.582 172.497 C 164.639 172.590,164.576 172.667,164.442 172.667 C 164.298 172.667,164.222 172.787,164.256 172.958 C 164.289 173.119,164.359 173.528,164.414 173.867 C 164.472 174.230,164.596 174.465,164.714 174.436 C 164.826 174.410,164.860 174.419,164.792 174.458 C 164.582 174.575,164.658 174.896,165.000 175.333 C 165.220 175.614,165.328 175.669,165.332 175.500 C 165.338 175.283,165.359 175.282,165.492 175.492 C 165.576 175.625,165.615 175.782,165.579 175.840 C 165.449 176.050,166.871 176.702,167.511 176.726 C 167.871 176.739,168.165 176.794,168.166 176.847 C 168.168 177.115,174.814 177.222,175.139 176.959 C 175.344 176.793,175.372 176.793,175.272 176.958 C 175.028 177.365,176.270 177.198,176.798 176.754 C 177.419 176.231,177.397 175.766,176.721 175.196 C 175.412 174.092,173.833 170.372,173.833 168.394 C 173.833 167.618,174.667 163.815,174.956 163.275 C 175.237 162.748,175.274 162.650,175.313 162.323 C 175.324 162.226,175.397 162.186,175.475 162.234 C 175.553 162.283,175.721 162.124,175.850 161.882 C 176.155 161.308,176.315 162.938,176.132 164.750 C 176.067 165.392,175.986 166.198,175.952 166.541 C 175.918 166.885,175.840 167.216,175.778 167.277 C 175.588 167.468,175.656 168.134,175.875 168.223 C 176.034 168.288,176.027 168.347,175.844 168.475 C 175.636 168.619,175.636 168.680,175.844 168.936 C 175.976 169.098,175.997 169.179,175.892 169.116 C 175.787 169.053,175.656 169.120,175.601 169.265 C 175.460 169.630,175.475 170.166,175.625 170.168 C 175.694 170.168,175.771 170.590,175.796 171.104 C 175.821 171.618,175.920 172.185,176.016 172.363 C 176.112 172.542,176.221 172.852,176.259 173.052 C 176.382 173.695,176.701 174.332,176.853 174.238 C 176.934 174.188,177.000 174.294,177.000 174.475 C 177.000 175.479,179.230 176.699,181.124 176.732 C 181.697 176.742,182.166 176.805,182.166 176.873 C 182.168 177.231,187.042 176.948,187.480 176.565 L 187.917 176.183 187.542 175.517 C 187.335 175.150,187.167 174.739,187.167 174.603 C 187.167 174.467,187.035 174.314,186.875 174.263 C 186.614 174.179,186.577 173.846,186.523 171.126 C 186.490 169.453,186.393 168.057,186.308 168.025 C 186.223 167.994,186.250 167.851,186.368 167.708 C 186.658 167.360,186.767 160.823,186.511 159.134 C 186.229 157.268,184.822 154.674,184.219 154.906 C 184.089 154.955,184.028 154.923,184.083 154.834 C 184.138 154.745,183.939 154.523,183.640 154.341 C 183.231 154.093,183.064 154.061,182.967 154.214 C 182.849 154.400,182.766 154.261,182.814 153.958 C 182.824 153.890,182.763 153.833,182.678 153.833 C 182.592 153.833,182.311 153.747,182.053 153.641 C 180.939 153.185,179.357 153.028,179.151 153.353 C 179.050 153.513,179.004 153.521,179.003 153.379 C 179.000 153.138,178.277 153.236,177.212 153.621 C 176.784 153.776,176.549 153.950,176.613 154.063 C 176.672 154.166,176.659 154.194,176.584 154.126 C 176.509 154.058,176.332 154.096,176.192 154.210 C 175.990 154.373,175.962 154.373,176.060 154.211 C 176.136 154.083,175.901 154.126,175.442 154.323 L 174.700 154.641 174.637 150.529 C 174.568 146.070,174.560 146.029,173.516 144.702 C 172.727 143.698,170.439 142.632,170.000 143.063 C 169.859 143.202,169.823 143.185,169.863 143.000 C 169.932 142.679,169.654 142.649,165.909 142.573 C 163.132 142.517,162.859 142.538,162.352 142.846 M233.750 143.734 C 232.818 143.912,232.746 143.958,232.689 144.421 C 232.635 144.856,232.611 144.876,232.492 144.583 C 232.369 144.281,232.356 144.278,232.345 144.557 C 232.329 144.987,233.204 146.178,233.467 146.083 C 233.586 146.039,233.638 146.079,233.581 146.170 C 233.445 146.391,233.645 147.000,233.854 147.000 C 233.945 147.000,233.966 146.913,233.901 146.808 C 233.825 146.685,233.855 146.661,233.986 146.741 C 234.098 146.810,234.147 146.977,234.095 147.112 C 234.044 147.247,234.081 147.506,234.178 147.688 C 234.430 148.158,234.724 149.957,234.686 150.792 C 234.667 151.192,234.729 151.500,234.827 151.500 C 234.922 151.500,235.000 151.612,235.000 151.750 C 235.000 151.887,234.923 152.000,234.829 152.000 C 234.722 152.000,234.666 152.568,234.681 153.500 C 234.697 154.492,234.769 155.001,234.894 155.003 C 235.014 155.004,235.004 155.055,234.867 155.142 C 234.712 155.241,234.660 155.699,234.684 156.765 C 234.702 157.582,234.653 158.400,234.574 158.583 C 234.496 158.767,234.428 159.565,234.424 160.358 C 234.420 161.150,234.356 161.762,234.282 161.717 C 234.208 161.672,234.158 162.111,234.171 162.693 C 234.192 163.656,234.108 166.214,233.922 170.283 C 233.843 172.004,233.965 173.157,234.188 172.805 C 234.296 172.634,234.329 172.648,234.331 172.865 C 234.332 173.020,234.261 173.192,234.172 173.247 C 234.083 173.301,234.043 173.550,234.082 173.798 C 234.122 174.047,234.199 174.606,234.254 175.042 C 234.328 175.626,234.427 175.837,234.635 175.846 C 234.793 175.854,234.829 175.895,234.718 175.941 C 234.339 176.095,235.371 177.307,236.261 177.753 C 237.239 178.243,239.508 178.506,239.905 178.176 C 240.064 178.044,240.171 178.039,240.245 178.159 C 240.397 178.405,241.166 178.377,241.169 178.125 C 241.171 177.984,241.229 177.997,241.349 178.167 C 241.482 178.356,241.546 178.366,241.610 178.207 C 241.657 178.092,241.773 178.046,241.867 178.104 C 242.259 178.346,245.332 177.462,245.952 176.928 C 246.410 176.534,246.405 175.667,245.945 175.667 C 245.826 175.667,245.510 175.438,245.241 175.158 C 244.921 174.823,244.645 174.677,244.436 174.732 C 244.213 174.790,244.171 174.762,244.295 174.638 C 244.419 174.514,244.402 174.264,244.236 173.793 C 244.106 173.426,244.000 172.872,244.000 172.562 C 244.000 172.143,243.926 171.997,243.708 171.987 C 243.534 171.979,243.501 171.940,243.625 171.890 C 243.967 171.752,243.886 171.159,243.542 171.278 C 243.265 171.373,243.265 171.367,243.542 171.147 C 243.861 170.896,243.870 170.801,244.178 164.250 C 244.268 162.325,244.409 160.113,244.491 159.335 C 244.601 158.294,244.589 157.887,244.445 157.796 C 244.300 157.703,244.303 157.671,244.458 157.669 C 244.598 157.668,244.649 157.449,244.613 157.000 C 244.584 156.633,244.618 156.333,244.688 156.333 C 244.759 156.333,244.819 155.392,244.822 154.242 C 244.824 153.092,244.769 152.187,244.699 152.230 C 244.629 152.273,244.571 152.164,244.571 151.988 C 244.571 151.811,244.637 151.667,244.718 151.667 C 244.798 151.667,244.826 151.273,244.778 150.792 C 244.649 149.470,244.481 148.825,244.297 148.939 C 244.196 149.001,244.173 148.910,244.237 148.707 C 244.467 147.985,242.890 145.167,242.257 145.167 C 242.135 145.167,241.995 145.062,241.946 144.933 C 241.658 144.183,236.697 143.078,236.324 143.681 C 236.210 143.866,236.138 143.872,235.974 143.707 C 235.730 143.464,235.126 143.471,233.750 143.734 M198.539 154.789 C 198.332 154.826,198.200 154.919,198.247 154.994 C 198.293 155.070,198.211 155.178,198.064 155.234 C 197.873 155.308,197.824 155.265,197.893 155.085 C 198.002 154.800,197.642 154.747,197.197 154.982 C 197.043 155.064,196.544 155.180,196.089 155.242 C 195.634 155.303,195.184 155.410,195.089 155.481 C 194.994 155.551,194.560 155.741,194.124 155.902 C 193.688 156.063,193.375 156.266,193.428 156.352 C 193.481 156.438,193.463 156.498,193.387 156.484 C 193.039 156.424,192.833 156.520,192.833 156.745 C 192.833 156.896,192.736 156.952,192.577 156.891 C 192.223 156.755,190.598 158.346,190.882 158.552 C 191.019 158.651,190.994 158.670,190.804 158.609 C 190.650 158.560,190.435 158.628,190.325 158.760 C 190.168 158.949,190.174 159.002,190.355 159.011 C 190.480 159.016,190.419 159.087,190.219 159.168 C 189.889 159.301,189.355 160.000,189.584 160.000 C 189.637 160.000,189.540 160.150,189.370 160.333 C 188.863 160.877,188.335 162.074,188.094 163.228 C 187.969 163.823,187.810 164.403,187.740 164.517 C 187.651 164.661,187.696 164.691,187.889 164.617 C 188.252 164.478,188.242 164.628,187.865 164.973 C 187.614 165.204,187.576 165.445,187.635 166.417 C 187.685 167.228,187.748 167.482,187.842 167.250 C 187.970 166.934,187.977 166.936,187.988 167.292 C 187.995 167.498,187.925 167.667,187.833 167.667 C 187.742 167.667,187.667 167.855,187.667 168.086 C 187.667 168.682,188.050 169.833,188.249 169.836 C 188.341 169.837,188.323 169.898,188.208 169.971 C 188.043 170.076,188.056 170.294,188.268 171.010 C 188.606 172.149,189.243 173.364,189.420 173.204 C 189.493 173.138,189.501 173.175,189.437 173.287 C 189.063 173.936,192.187 177.220,192.913 176.941 C 193.050 176.888,193.145 176.927,193.123 177.026 C 193.075 177.246,195.073 177.971,196.124 178.115 C 196.721 178.197,196.857 178.173,196.753 178.005 C 196.664 177.861,196.696 177.818,196.852 177.874 C 196.979 177.920,197.065 178.043,197.042 178.146 C 197.019 178.249,197.117 178.333,197.260 178.333 C 197.423 178.333,197.473 178.256,197.395 178.125 C 197.311 177.986,197.364 177.994,197.554 178.148 C 197.838 178.378,200.654 178.341,204.833 178.052 C 205.612 177.999,206.381 177.949,206.542 177.942 C 206.702 177.934,206.834 177.813,206.836 177.673 C 206.838 177.460,206.863 177.456,206.986 177.649 C 207.202 177.991,208.141 177.754,208.702 177.216 C 209.145 176.792,209.399 175.500,209.041 175.500 C 208.971 175.500,208.815 175.275,208.693 174.999 C 208.571 174.724,208.415 174.533,208.345 174.576 C 208.160 174.690,208.484 172.803,208.693 172.552 C 208.791 172.434,208.829 172.229,208.778 172.096 C 208.727 171.963,208.760 171.830,208.852 171.799 C 209.041 171.736,209.323 170.644,209.329 169.948 C 209.332 169.633,209.270 169.520,209.138 169.601 C 209.007 169.682,208.978 169.630,209.051 169.440 C 209.117 169.268,209.031 169.031,208.830 168.830 C 208.648 168.648,208.500 168.427,208.500 168.338 C 208.500 167.797,206.121 167.506,205.083 167.919 C 204.811 168.028,204.826 167.983,205.167 167.675 C 205.396 167.467,205.563 167.225,205.538 167.136 C 205.512 167.048,205.566 167.021,205.658 167.078 C 206.111 167.358,208.435 164.740,208.275 164.129 C 208.233 163.966,208.265 163.833,208.347 163.833 C 208.613 163.833,209.021 162.609,209.114 161.533 C 209.221 160.302,208.913 158.934,208.559 159.070 C 208.435 159.117,208.333 159.084,208.333 158.995 C 208.333 158.906,208.410 158.833,208.503 158.833 C 208.831 158.833,208.024 157.568,207.224 156.829 C 206.272 155.950,205.411 155.502,203.600 154.946 C 202.832 154.711,199.537 154.608,198.539 154.789 M278.394 155.086 C 278.488 155.329,278.465 155.345,278.265 155.179 C 277.995 154.955,277.169 155.366,277.164 155.728 C 277.163 155.835,277.097 155.815,277.012 155.681 C 276.892 155.491,276.760 155.548,276.337 155.971 C 276.029 156.278,275.862 156.578,275.933 156.693 C 276.015 156.826,275.966 156.856,275.783 156.786 C 275.633 156.728,275.474 156.740,275.429 156.813 C 275.335 156.965,274.338 156.851,274.359 156.690 C 274.404 156.343,274.267 156.187,273.691 155.927 C 273.337 155.768,272.793 155.625,272.482 155.611 C 272.171 155.596,271.866 155.514,271.805 155.428 C 271.607 155.154,268.167 154.880,268.167 155.139 C 268.167 155.214,267.944 155.243,267.672 155.203 C 266.462 155.025,265.860 156.632,266.812 157.500 C 267.086 157.750,267.430 158.500,267.844 159.750 C 267.973 160.141,268.048 160.984,268.023 161.792 C 268.001 162.548,268.048 163.167,268.128 163.167 C 268.211 163.167,268.210 163.545,268.126 164.042 C 268.045 164.523,267.953 165.344,267.921 165.867 C 267.889 166.389,267.827 166.877,267.783 166.950 C 267.574 167.295,267.284 173.234,267.473 173.296 C 267.579 173.332,267.667 173.434,267.667 173.524 C 267.667 173.613,267.580 173.633,267.474 173.567 C 266.956 173.247,267.814 176.518,268.346 176.890 C 268.521 177.013,268.628 177.150,268.583 177.195 C 268.313 177.464,269.824 178.296,270.522 178.262 C 270.816 178.248,270.934 178.311,270.879 178.454 C 270.834 178.571,270.862 178.674,270.941 178.683 C 271.019 178.693,271.458 178.728,271.917 178.763 C 272.375 178.798,272.956 178.863,273.208 178.909 C 273.460 178.954,273.667 178.917,273.667 178.826 C 273.667 178.731,273.851 178.707,274.101 178.769 C 274.389 178.842,274.585 178.800,274.682 178.648 C 274.804 178.454,274.829 178.454,274.831 178.645 C 274.833 178.826,275.080 178.851,276.042 178.767 C 276.706 178.709,277.647 178.650,278.132 178.637 C 278.617 178.624,279.052 178.550,279.100 178.473 C 279.147 178.396,279.394 178.333,279.647 178.333 C 280.078 178.333,280.833 177.752,280.833 177.421 C 280.833 177.220,279.220 175.675,279.100 175.761 C 279.045 175.801,279.036 175.785,279.079 175.727 C 279.207 175.553,278.615 174.667,278.371 174.667 C 278.248 174.667,278.185 174.606,278.231 174.531 C 278.359 174.324,277.822 172.631,277.538 172.348 C 277.370 172.180,277.350 172.078,277.478 172.035 C 277.733 171.950,277.718 171.382,277.458 171.277 C 277.292 171.209,277.293 171.162,277.461 171.043 C 277.679 170.889,277.464 168.571,277.179 168.000 C 277.110 167.862,277.109 166.925,277.177 165.917 C 277.244 164.908,277.259 163.727,277.210 163.292 C 277.161 162.856,277.154 162.500,277.195 162.500 C 277.236 162.500,277.803 162.762,278.454 163.083 C 279.105 163.404,279.780 163.667,279.952 163.667 C 280.125 163.667,280.368 163.760,280.491 163.875 C 280.674 164.044,280.689 164.037,280.576 163.833 C 280.452 163.613,280.471 163.612,280.738 163.829 C 281.138 164.154,283.241 164.124,283.887 163.783 C 284.201 163.618,284.284 163.504,284.137 163.441 C 284.016 163.389,284.142 163.362,284.417 163.382 C 284.786 163.407,284.902 163.351,284.861 163.167 C 284.831 163.029,284.859 162.970,284.924 163.035 C 285.071 163.182,286.000 162.718,286.000 162.498 C 286.000 162.410,286.257 162.093,286.571 161.794 C 287.815 160.608,288.873 157.926,288.185 157.700 C 288.032 157.649,287.994 157.701,288.072 157.853 C 288.138 157.980,288.076 157.933,287.935 157.750 C 287.438 157.105,287.318 157.000,287.077 157.000 C 286.943 157.000,286.827 157.131,286.820 157.292 C 286.812 157.466,286.773 157.499,286.723 157.375 C 286.677 157.260,286.455 157.167,286.229 157.167 C 286.004 157.167,285.527 157.017,285.170 156.835 C 284.812 156.652,284.410 156.545,284.276 156.596 C 284.143 156.647,283.985 156.610,283.925 156.513 C 283.857 156.403,283.928 156.375,284.116 156.438 C 284.293 156.497,284.211 156.361,283.917 156.108 C 283.389 155.655,282.378 155.233,282.214 155.397 C 282.160 155.451,282.026 155.372,281.917 155.222 C 281.603 154.793,278.232 154.662,278.394 155.086 M255.808 155.075 C 255.748 155.138,255.169 155.263,254.520 155.353 C 253.284 155.524,252.419 155.857,252.628 156.082 C 252.695 156.154,252.562 156.169,252.332 156.114 C 251.824 155.992,251.406 156.213,251.588 156.507 C 251.676 156.650,251.651 156.677,251.510 156.589 C 251.253 156.430,250.500 156.812,250.500 157.102 C 250.500 157.218,250.426 157.359,250.335 157.415 C 250.237 157.476,250.214 157.396,250.279 157.217 C 250.365 156.978,250.287 157.001,249.902 157.329 C 247.966 158.976,246.400 160.931,246.551 161.511 C 246.592 161.668,246.553 161.898,246.464 162.023 C 246.346 162.188,246.332 162.159,246.411 161.917 C 246.627 161.255,246.112 161.971,245.822 162.736 C 245.613 163.287,245.589 163.527,245.729 163.679 C 245.869 163.830,245.867 163.854,245.720 163.772 C 245.417 163.602,245.277 163.980,245.527 164.289 C 245.688 164.488,245.692 164.529,245.540 164.438 C 245.244 164.260,245.057 164.828,245.351 165.014 C 245.534 165.130,245.517 165.162,245.273 165.164 C 245.019 165.166,244.975 165.269,245.030 165.738 C 245.067 166.053,245.048 166.280,244.988 166.242 C 244.928 166.205,244.865 166.736,244.850 167.421 C 244.828 168.340,244.877 168.667,245.035 168.669 C 245.194 168.671,245.199 168.704,245.054 168.796 C 244.905 168.891,244.912 169.160,245.085 169.919 C 245.518 171.822,245.644 172.216,245.863 172.355 C 246.009 172.448,246.018 172.496,245.888 172.497 C 245.666 172.500,246.076 173.736,246.447 174.180 C 246.568 174.325,246.667 174.516,246.667 174.604 C 246.667 175.884,250.531 178.577,252.542 178.697 C 252.885 178.718,253.167 178.803,253.167 178.887 C 253.167 178.970,253.354 179.003,253.583 178.959 C 253.813 178.915,254.000 178.926,254.000 178.984 C 254.000 179.124,258.905 178.995,258.960 178.853 C 258.983 178.792,259.290 178.769,259.641 178.802 C 260.024 178.839,260.374 178.774,260.515 178.640 C 260.659 178.503,261.199 178.408,261.917 178.393 C 264.196 178.347,264.489 178.319,264.603 178.135 C 264.679 178.012,264.638 177.994,264.484 178.082 C 264.285 178.195,264.285 178.180,264.479 177.983 C 264.648 177.811,264.728 177.802,264.782 177.949 C 264.876 178.205,265.315 178.043,265.797 177.572 C 266.319 177.064,266.377 176.297,265.977 175.227 C 265.634 174.311,265.594 172.863,265.904 172.639 C 266.146 172.464,266.236 169.737,266.017 169.210 C 265.569 168.129,262.321 167.494,262.545 168.531 C 262.566 168.629,262.490 168.743,262.375 168.785 C 262.233 168.837,262.203 168.763,262.281 168.556 C 262.373 168.310,262.349 168.285,262.156 168.430 C 262.024 168.529,261.336 168.818,260.626 169.072 C 259.915 169.326,259.376 169.600,259.426 169.681 C 259.476 169.763,259.409 169.788,259.276 169.737 C 259.143 169.686,258.986 169.721,258.928 169.815 C 258.870 169.909,258.716 169.945,258.586 169.895 C 258.456 169.845,258.259 169.860,258.149 169.928 C 257.434 170.369,255.140 169.926,254.292 169.182 C 253.975 168.903,253.666 168.710,253.607 168.754 C 253.548 168.798,253.531 168.790,253.569 168.736 C 253.607 168.683,253.457 168.373,253.236 168.047 C 253.014 167.720,252.833 167.281,252.833 167.070 C 252.833 166.859,252.765 166.644,252.682 166.593 C 252.593 166.538,252.619 166.118,252.743 165.583 C 252.860 165.079,252.915 164.667,252.864 164.667 C 252.813 164.667,252.979 164.450,253.232 164.185 C 253.567 163.836,253.633 163.679,253.472 163.615 C 253.320 163.554,253.339 163.522,253.533 163.513 C 253.689 163.506,253.877 163.397,253.950 163.270 C 254.537 162.260,257.282 161.404,258.572 161.830 C 260.403 162.434,260.284 164.604,258.417 164.668 C 257.280 164.707,257.133 164.689,257.234 164.525 C 257.332 164.367,256.737 163.667,256.505 163.667 C 256.423 163.667,256.332 163.460,256.303 163.208 C 256.265 162.880,256.155 162.749,255.917 162.747 C 255.475 162.742,254.929 163.250,255.091 163.513 C 255.178 163.653,255.149 163.676,255.002 163.584 C 254.839 163.484,254.806 163.558,254.868 163.887 C 254.919 164.154,254.887 164.283,254.785 164.220 C 254.677 164.153,254.649 164.539,254.704 165.320 C 254.792 166.537,255.521 167.986,255.991 167.875 C 256.088 167.852,256.148 167.920,256.125 168.026 C 256.055 168.348,257.682 168.870,258.133 168.670 C 258.640 168.445,259.333 168.453,259.333 168.684 C 259.333 168.796,259.448 168.820,259.625 168.745 C 259.785 168.677,260.104 168.631,260.333 168.642 C 260.666 168.659,260.700 168.629,260.500 168.493 C 260.315 168.367,260.371 168.351,260.719 168.432 C 261.234 168.552,262.556 168.059,262.400 167.806 C 262.350 167.725,262.370 167.676,262.446 167.698 C 262.940 167.840,264.630 166.222,264.783 165.461 C 264.833 165.210,264.934 165.043,265.008 165.088 C 265.533 165.413,266.183 161.025,265.718 160.285 C 265.649 160.174,265.612 159.962,265.636 159.814 C 265.684 159.519,264.551 157.736,264.058 157.331 C 263.207 156.633,262.674 156.341,262.425 156.437 C 262.247 156.505,262.170 156.463,262.202 156.315 C 262.330 155.719,256.305 154.550,255.808 155.075 M219.788 155.289 C 219.350 155.324,219.027 155.409,219.070 155.479 C 219.114 155.549,218.933 155.575,218.669 155.536 C 218.046 155.444,216.059 156.106,215.927 156.449 C 215.871 156.595,215.780 156.669,215.725 156.614 C 215.398 156.287,212.237 158.509,212.406 158.948 C 212.455 159.078,212.430 159.143,212.350 159.094 C 212.173 158.984,211.304 160.082,211.452 160.229 C 211.509 160.287,211.470 160.333,211.365 160.333 C 211.093 160.333,210.650 161.263,210.772 161.580 C 210.835 161.745,210.796 161.828,210.668 161.798 C 209.961 161.632,209.355 167.775,209.820 170.398 C 210.104 171.997,210.181 172.251,210.741 173.417 C 211.693 175.401,215.828 178.651,216.342 177.819 C 216.415 177.701,216.486 177.722,216.547 177.882 C 216.598 178.016,216.852 178.164,217.112 178.212 C 217.371 178.260,217.771 178.353,218.000 178.419 C 218.739 178.630,220.720 178.721,220.607 178.539 C 220.473 178.321,221.046 178.364,221.203 178.583 C 221.323 178.751,223.741 178.767,225.167 178.609 C 227.237 178.381,227.784 178.301,228.167 178.170 C 228.396 178.092,228.951 177.984,229.400 177.930 C 230.247 177.829,230.731 177.573,230.569 177.310 C 230.517 177.227,230.575 177.179,230.696 177.204 C 231.120 177.292,231.054 176.165,230.580 175.229 C 230.069 174.218,230.089 173.590,230.675 172.269 C 231.207 171.069,231.091 169.577,230.410 168.855 C 229.799 168.207,228.862 167.852,228.652 168.189 C 228.540 168.369,228.444 168.375,228.191 168.219 C 228.015 168.110,227.694 168.055,227.478 168.096 C 227.165 168.155,227.181 168.132,227.553 167.984 C 227.841 167.870,227.989 167.710,227.935 167.571 C 227.887 167.446,227.913 167.304,227.993 167.254 C 228.073 167.205,228.166 167.247,228.199 167.348 C 228.293 167.629,229.552 166.513,230.143 165.625 C 230.432 165.190,230.594 164.833,230.501 164.833 C 230.409 164.833,230.333 164.761,230.333 164.672 C 230.333 164.583,230.435 164.550,230.560 164.597 C 230.768 164.677,230.921 164.416,231.229 163.458 C 231.283 163.289,231.237 163.166,231.120 163.164 C 230.982 163.162,230.991 163.115,231.149 163.014 C 231.510 162.786,231.313 160.106,230.872 159.247 C 230.432 158.389,229.239 157.103,229.012 157.242 C 228.913 157.304,228.874 157.256,228.922 157.130 C 228.970 157.004,228.790 156.781,228.503 156.612 C 228.226 156.448,228.000 156.361,228.000 156.419 C 228.000 156.476,227.783 156.368,227.519 156.180 C 226.555 155.494,221.959 154.861,221.643 155.371 C 221.540 155.538,221.472 155.538,221.307 155.374 C 221.193 155.260,220.984 155.180,220.842 155.197 C 220.700 155.213,220.225 155.255,219.788 155.289 M201.626 161.597 C 201.792 161.430,202.716 162.537,202.817 163.024 C 202.922 163.527,202.874 163.631,202.342 164.057 C 202.016 164.317,201.750 164.592,201.750 164.668 C 201.750 164.744,201.682 164.868,201.598 164.944 C 201.510 165.025,201.497 164.996,201.567 164.875 C 201.723 164.603,200.914 164.287,200.436 164.433 C 200.242 164.493,200.140 164.481,200.210 164.408 C 200.279 164.335,200.192 164.119,200.015 163.929 C 199.838 163.739,199.627 163.321,199.545 163.000 C 199.094 161.225,197.670 162.628,197.668 164.850 C 197.666 166.685,199.553 169.139,200.192 168.131 C 200.293 167.973,200.329 167.993,200.331 168.208 C 200.334 168.571,202.165 168.654,202.169 168.292 C 202.171 168.126,202.199 168.127,202.305 168.293 C 202.407 168.454,202.644 168.464,203.325 168.335 C 203.813 168.242,204.237 168.167,204.268 168.167 C 204.298 168.167,204.273 168.038,204.213 167.880 C 204.115 167.626,204.133 167.621,204.375 167.839 C 204.608 168.048,204.613 168.110,204.409 168.266 C 204.279 168.367,204.216 168.494,204.270 168.547 C 204.324 168.601,204.154 168.643,203.892 168.640 C 203.631 168.637,203.088 168.754,202.687 168.900 C 202.286 169.047,201.848 169.167,201.713 169.167 C 201.578 169.167,201.231 169.272,200.942 169.401 C 200.297 169.690,199.478 169.837,199.598 169.643 C 199.647 169.564,199.607 169.491,199.510 169.479 C 199.413 169.468,199.277 169.449,199.208 169.437 C 199.140 169.426,198.840 169.243,198.543 169.031 C 198.246 168.819,197.928 168.692,197.836 168.748 C 197.744 168.805,197.711 168.746,197.761 168.613 C 197.812 168.483,197.745 168.269,197.615 168.138 C 197.484 168.007,197.254 167.663,197.104 167.373 C 196.924 167.025,196.746 166.877,196.582 166.940 C 196.445 166.993,196.333 166.948,196.333 166.841 C 196.333 166.734,196.419 166.700,196.524 166.765 C 196.661 166.849,196.680 166.745,196.591 166.400 C 196.416 165.719,196.387 164.833,196.539 164.833 C 196.609 164.833,196.667 164.688,196.667 164.510 C 196.667 164.332,196.747 164.137,196.845 164.076 C 196.943 164.016,196.976 163.845,196.919 163.697 C 196.862 163.548,196.867 163.478,196.930 163.541 C 196.993 163.604,197.265 163.377,197.534 163.036 C 198.329 162.031,199.729 161.373,200.741 161.529 C 201.194 161.600,201.592 161.630,201.626 161.597 M223.894 162.000 C 224.065 162.010,224.166 162.056,224.120 162.103 C 224.073 162.149,224.215 162.381,224.434 162.618 C 225.041 163.273,224.963 163.900,224.211 164.411 C 222.988 165.242,221.673 164.690,221.405 163.233 C 221.260 162.446,220.667 161.931,220.667 162.593 C 220.667 162.736,220.588 162.805,220.493 162.745 C 219.851 162.349,219.237 164.108,219.491 165.615 C 219.706 166.888,220.868 168.484,221.424 168.270 C 221.567 168.215,221.642 168.239,221.591 168.322 C 221.539 168.405,221.723 168.522,221.999 168.583 C 222.274 168.644,222.500 168.770,222.500 168.865 C 222.500 168.960,222.669 168.994,222.883 168.940 C 223.411 168.808,224.395 169.068,223.917 169.214 C 221.838 169.847,219.528 169.350,218.899 168.133 C 218.767 167.876,218.573 167.667,218.468 167.667 C 218.363 167.667,218.321 167.624,218.374 167.571 C 218.426 167.518,218.394 167.237,218.302 166.946 C 217.982 165.938,218.258 164.245,218.845 163.616 C 219.022 163.426,219.167 163.213,219.167 163.143 C 219.167 162.972,220.500 162.063,220.918 161.950 C 221.199 161.874,221.870 161.885,223.894 162.000 M258.451 168.851 C 258.582 168.982,258.722 168.984,258.942 168.856 C 259.212 168.699,259.189 168.676,258.758 168.672 C 258.400 168.668,258.316 168.716,258.451 168.851 M168.797 184.290 C 169.282 184.324,170.032 184.323,170.464 184.289 C 170.896 184.255,170.500 184.227,169.583 184.228 C 168.667 184.228,168.313 184.256,168.797 184.290 " stroke="none" fill="#6c6c3c" fill-rule="evenodd"></path><path id="path1" d="M138.458 88.457 C 139.031 88.489,139.969 88.489,140.542 88.457 C 141.115 88.424,140.646 88.398,139.500 88.398 C 138.354 88.398,137.885 88.424,138.458 88.457 M171.042 88.453 C 171.294 88.491,171.706 88.491,171.958 88.453 C 172.210 88.415,172.004 88.383,171.500 88.383 C 170.996 88.383,170.790 88.415,171.042 88.453 M173.544 88.453 C 173.797 88.491,174.172 88.490,174.377 88.451 C 174.582 88.411,174.375 88.380,173.917 88.381 C 173.458 88.382,173.291 88.415,173.544 88.453 M178.708 88.448 C 178.869 88.490,179.131 88.490,179.292 88.448 C 179.452 88.406,179.321 88.372,179.000 88.372 C 178.679 88.372,178.548 88.406,178.708 88.448 M199.958 88.457 C 200.531 88.489,201.469 88.489,202.042 88.457 C 202.615 88.424,202.146 88.398,201.000 88.398 C 199.854 88.398,199.385 88.424,199.958 88.457 M211.542 88.448 C 211.702 88.490,211.965 88.490,212.125 88.448 C 212.285 88.406,212.154 88.372,211.833 88.372 C 211.512 88.372,211.381 88.406,211.542 88.448 M216.542 88.456 C 217.069 88.490,217.931 88.490,218.458 88.456 C 218.985 88.423,218.554 88.396,217.500 88.396 C 216.446 88.396,216.015 88.423,216.542 88.456 M246.713 88.456 C 247.152 88.490,247.827 88.490,248.213 88.455 C 248.600 88.420,248.242 88.392,247.417 88.392 C 246.592 88.393,246.275 88.422,246.713 88.456 M284.375 88.453 C 284.627 88.491,285.040 88.491,285.292 88.453 C 285.544 88.415,285.337 88.383,284.833 88.383 C 284.329 88.383,284.123 88.415,284.375 88.453 M168.460 88.618 C 168.668 88.658,168.968 88.656,169.127 88.615 C 169.286 88.573,169.117 88.540,168.750 88.542 C 168.383 88.544,168.253 88.578,168.460 88.618 M109.518 89.740 C 109.635 89.857,116.334 89.888,116.450 89.772 C 116.508 89.714,114.956 89.667,113.000 89.667 C 111.044 89.667,109.477 89.700,109.518 89.740 M126.833 89.833 C 126.833 89.925,126.946 90.000,127.083 90.000 C 127.221 90.000,127.333 89.925,127.333 89.833 C 127.333 89.742,127.221 89.667,127.083 89.667 C 126.946 89.667,126.833 89.742,126.833 89.833 M127.667 89.833 C 127.667 89.925,127.779 90.000,127.917 90.000 C 128.054 90.000,128.167 89.925,128.167 89.833 C 128.167 89.742,128.054 89.667,127.917 89.667 C 127.779 89.667,127.667 89.742,127.667 89.833 M128.500 89.861 C 128.500 89.938,129.006 89.994,129.625 89.987 C 130.918 89.972,130.847 89.889,129.458 89.791 C 128.931 89.753,128.500 89.785,128.500 89.861 M187.583 89.833 C 187.522 89.932,187.704 89.995,188.032 89.988 C 188.491 89.979,188.528 89.953,188.250 89.833 C 187.798 89.639,187.703 89.639,187.583 89.833 M198.960 89.785 C 199.168 89.824,199.468 89.823,199.627 89.781 C 199.786 89.739,199.617 89.707,199.250 89.709 C 198.883 89.711,198.753 89.745,198.960 89.785 M119.627 89.951 C 119.834 89.991,120.134 89.990,120.294 89.948 C 120.453 89.906,120.283 89.874,119.917 89.875 C 119.550 89.877,119.420 89.911,119.627 89.951 M134.292 89.951 C 134.498 89.991,134.835 89.991,135.042 89.951 C 135.248 89.911,135.079 89.879,134.667 89.879 C 134.254 89.879,134.085 89.911,134.292 89.951 M162.711 89.953 C 162.964 89.991,163.339 89.990,163.544 89.951 C 163.749 89.911,163.542 89.880,163.083 89.881 C 162.625 89.882,162.457 89.915,162.711 89.953 M202.794 89.951 C 203.001 89.991,203.301 89.990,203.460 89.948 C 203.620 89.906,203.450 89.874,203.083 89.875 C 202.717 89.877,202.586 89.911,202.794 89.951 M91.561 94.583 C 91.561 95.500,91.589 95.854,91.623 95.369 C 91.657 94.885,91.656 94.135,91.622 93.703 C 91.588 93.270,91.560 93.667,91.561 94.583 M201.417 94.667 C 201.877 94.865,202.167 94.865,202.167 94.667 C 202.167 94.575,201.923 94.505,201.625 94.512 C 201.171 94.522,201.137 94.547,201.417 94.667 M287.712 97.833 C 287.712 98.246,287.745 98.415,287.784 98.208 C 287.824 98.002,287.824 97.665,287.784 97.458 C 287.745 97.252,287.712 97.421,287.712 97.833 M91.566 104.917 C 91.566 106.200,91.592 106.703,91.624 106.034 C 91.656 105.366,91.655 104.316,91.623 103.701 C 91.591 103.086,91.565 103.633,91.566 104.917 M96.840 102.841 C 97.132 103.026,98.000 103.052,98.000 102.875 C 97.999 102.806,97.683 102.736,97.297 102.718 C 96.812 102.696,96.671 102.734,96.840 102.841 M287.709 113.083 C 287.711 113.450,287.745 113.580,287.785 113.373 C 287.824 113.166,287.823 112.866,287.781 112.706 C 287.739 112.547,287.707 112.717,287.709 113.083 M287.709 127.417 C 287.711 127.783,287.745 127.914,287.785 127.706 C 287.824 127.499,287.823 127.199,287.781 127.040 C 287.739 126.880,287.707 127.050,287.709 127.417 M91.545 140.333 C 91.545 140.746,91.578 140.915,91.618 140.708 C 91.657 140.502,91.657 140.165,91.618 139.958 C 91.578 139.752,91.545 139.921,91.545 140.333 M91.542 141.750 C 91.544 142.117,91.578 142.247,91.618 142.040 C 91.658 141.832,91.656 141.532,91.615 141.373 C 91.573 141.214,91.540 141.383,91.542 141.750 M289.042 146.250 C 289.044 146.617,289.078 146.747,289.118 146.540 C 289.158 146.332,289.156 146.032,289.115 145.873 C 289.073 145.714,289.040 145.883,289.042 146.250 M91.567 160.500 C 91.567 161.921,91.593 162.502,91.624 161.792 C 91.655 161.081,91.655 159.919,91.624 159.208 C 91.593 158.498,91.567 159.079,91.567 160.500 M268.048 163.917 C 268.049 164.375,268.081 164.543,268.120 164.289 C 268.158 164.036,268.157 163.661,268.117 163.456 C 268.078 163.251,268.046 163.458,268.048 163.917 M91.545 178.500 C 91.545 178.912,91.578 179.081,91.618 178.875 C 91.657 178.669,91.657 178.331,91.618 178.125 C 91.578 177.919,91.545 178.088,91.545 178.500 M289.039 184.500 C 289.039 184.821,289.073 184.952,289.115 184.792 C 289.157 184.631,289.157 184.369,289.115 184.208 C 289.073 184.048,289.039 184.179,289.039 184.500 M117.121 185.454 C 117.417 185.490,117.942 185.491,118.288 185.455 C 118.634 185.419,118.392 185.389,117.750 185.388 C 117.108 185.387,116.825 185.417,117.121 185.454 M124.794 189.951 C 125.001 189.991,125.301 189.990,125.460 189.948 C 125.620 189.906,125.450 189.874,125.083 189.875 C 124.717 189.877,124.586 189.911,124.794 189.951 M139.042 189.956 C 139.569 189.990,140.431 189.990,140.958 189.956 C 141.485 189.923,141.054 189.896,140.000 189.896 C 138.946 189.896,138.515 189.923,139.042 189.956 M149.708 189.953 C 149.960 189.991,150.373 189.991,150.625 189.953 C 150.877 189.915,150.671 189.883,150.167 189.883 C 149.662 189.883,149.456 189.915,149.708 189.953 " stroke="none" fill="#a45c34" fill-rule="evenodd"></path><path id="path2" d="M91.646 88.627 C 91.635 88.786,91.616 93.235,91.605 98.514 C 91.582 108.839,91.565 108.649,92.414 107.639 C 92.633 107.379,92.910 107.166,93.031 107.164 C 93.191 107.162,93.183 107.118,93.000 107.000 C 92.836 106.894,92.821 106.838,92.957 106.836 C 93.119 106.834,93.162 105.072,93.154 98.708 C 93.149 94.240,93.149 90.452,93.156 90.292 C 93.166 90.017,93.834 89.998,104.458 89.964 C 110.745 89.944,114.346 89.886,112.583 89.833 L 109.417 89.739 112.968 89.703 C 115.302 89.679,116.484 89.724,116.417 89.833 C 116.284 90.047,116.437 90.045,116.844 89.827 C 117.022 89.733,117.167 89.714,117.167 89.786 C 117.167 89.858,119.342 89.941,122.000 89.971 C 125.366 90.008,126.833 89.970,126.833 89.846 C 126.833 89.597,127.284 89.620,127.403 89.875 C 127.481 90.042,127.519 90.042,127.597 89.875 C 127.651 89.760,127.794 89.667,127.917 89.667 C 128.039 89.667,128.177 89.760,128.223 89.875 C 128.283 90.022,128.349 90.030,128.446 89.902 C 128.538 89.780,128.994 89.760,129.833 89.840 C 131.873 90.036,187.353 90.025,187.589 89.829 C 187.719 89.720,187.939 89.715,188.198 89.814 C 188.437 89.904,196.953 89.984,208.844 90.008 C 277.450 90.144,287.667 90.193,287.678 90.387 C 287.684 90.495,287.697 105.303,287.706 123.295 C 287.724 157.212,287.712 156.634,288.352 156.239 C 288.470 156.165,288.508 156.186,288.444 156.289 C 288.385 156.384,288.486 156.501,288.668 156.549 C 288.851 156.596,289.029 156.586,289.065 156.526 C 289.335 156.079,289.110 88.648,288.839 88.503 C 288.383 88.259,237.334 88.313,237.331 88.558 C 237.329 88.689,237.289 88.694,237.206 88.573 C 236.963 88.223,91.671 88.277,91.646 88.627 M169.127 88.615 C 168.968 88.656,168.668 88.658,168.460 88.618 C 168.253 88.578,168.383 88.544,168.750 88.542 C 169.117 88.540,169.286 88.573,169.127 88.615 M199.627 89.781 C 199.468 89.823,199.168 89.824,198.960 89.785 C 198.753 89.745,198.883 89.711,199.250 89.709 C 199.617 89.707,199.786 89.739,199.627 89.781 M96.749 94.063 C 96.405 94.315,96.101 97.997,96.443 97.785 C 96.520 97.737,96.566 98.835,96.545 100.226 L 96.506 102.753 97.253 102.745 C 97.664 102.740,98.000 102.800,98.000 102.878 C 98.000 102.956,98.077 102.972,98.172 102.913 C 98.286 102.843,98.316 101.571,98.262 99.154 C 98.187 95.792,98.203 95.499,98.465 95.482 C 98.622 95.472,100.587 95.486,102.833 95.513 C 105.079 95.541,111.454 95.587,117.000 95.617 C 122.546 95.646,129.633 95.716,132.750 95.772 C 136.492 95.840,138.630 95.815,139.044 95.700 C 139.388 95.604,139.633 95.586,139.588 95.658 C 139.543 95.731,142.242 95.782,145.587 95.771 C 148.931 95.759,151.667 95.808,151.667 95.880 C 151.667 95.951,156.223 96.013,161.792 96.019 C 167.360 96.024,175.657 96.065,180.229 96.110 C 186.039 96.167,188.596 96.138,188.721 96.013 C 188.819 95.914,188.979 95.834,189.075 95.836 C 189.171 95.837,189.140 95.908,189.005 95.993 C 188.848 96.093,189.635 96.151,191.213 96.156 C 192.912 96.162,193.667 96.107,193.667 95.978 C 193.667 95.843,193.726 95.842,193.889 95.977 C 194.011 96.078,194.423 96.130,194.805 96.092 C 195.187 96.054,195.500 96.093,195.500 96.180 C 195.500 96.278,203.442 96.333,216.542 96.327 C 228.115 96.321,238.091 96.366,238.712 96.426 C 239.547 96.506,239.913 96.476,240.119 96.309 C 240.324 96.143,240.364 96.140,240.269 96.296 C 240.166 96.468,241.894 96.508,249.196 96.503 C 254.176 96.500,260.642 96.547,263.566 96.606 C 268.086 96.698,268.861 96.679,268.743 96.482 C 268.631 96.298,268.652 96.290,268.843 96.443 C 269.017 96.583,270.777 96.629,275.208 96.610 L 281.333 96.583 281.354 97.875 C 281.366 98.585,281.394 99.242,281.417 99.333 C 281.440 99.425,281.471 99.556,281.487 99.625 C 281.503 99.694,281.537 104.888,281.562 111.167 C 281.587 117.446,281.646 127.758,281.693 134.083 C 281.740 140.408,281.791 147.693,281.805 150.271 C 281.834 155.399,281.815 155.307,282.833 155.271 L 283.417 155.250 283.406 151.667 C 283.400 149.696,283.353 142.758,283.301 136.250 C 283.250 129.742,283.197 117.977,283.184 110.107 C 283.159 95.636,283.141 95.208,282.541 95.168 C 281.773 95.116,241.124 94.792,228.083 94.733 C 222.675 94.709,216.923 94.658,215.300 94.620 C 213.370 94.574,212.290 94.610,212.175 94.725 C 212.075 94.825,212.000 94.832,212.000 94.741 C 212.000 94.507,202.296 94.458,202.151 94.691 C 202.072 94.820,201.865 94.815,201.430 94.671 C 200.938 94.509,200.767 94.513,200.545 94.693 C 200.386 94.822,200.319 94.834,200.386 94.722 C 200.522 94.495,199.580 94.473,184.000 94.351 C 178.179 94.305,168.954 94.232,163.500 94.190 C 158.046 94.147,143.683 94.072,131.583 94.023 C 119.483 93.975,106.771 93.909,103.333 93.877 C 98.054 93.829,97.031 93.858,96.749 94.063 M91.574 165.042 C 91.583 189.379,91.618 191.486,92.012 191.243 C 92.097 191.190,92.167 191.228,92.167 191.327 C 92.167 191.602,288.745 191.558,288.973 191.283 C 289.193 191.017,289.217 161.550,288.996 161.414 C 288.911 161.361,288.693 161.397,288.514 161.493 C 288.293 161.611,288.153 161.613,288.082 161.498 C 287.741 160.946,287.689 162.832,287.692 175.600 C 287.694 183.351,287.665 189.724,287.627 189.762 C 287.505 189.884,93.323 189.878,93.201 189.757 C 93.136 189.692,93.088 178.695,93.094 165.319 C 93.100 151.593,93.041 141.000,92.959 141.000 C 92.879 141.000,92.855 140.933,92.906 140.850 C 92.957 140.768,92.782 140.469,92.518 140.186 C 92.254 139.903,91.994 139.558,91.941 139.419 C 91.887 139.280,91.781 139.167,91.705 139.167 C 91.628 139.167,91.570 150.810,91.574 165.042 M97.693 144.984 C 97.544 145.076,97.511 145.540,97.573 146.680 C 97.621 147.544,97.679 151.149,97.704 154.693 C 97.728 158.237,97.786 161.112,97.833 161.084 C 97.879 161.055,97.892 162.562,97.862 164.432 C 97.832 166.303,97.870 167.833,97.946 167.833 C 98.021 167.833,98.061 169.458,98.035 171.445 C 98.008 173.432,98.038 175.175,98.101 175.320 C 98.164 175.465,98.200 176.352,98.182 177.292 C 98.156 178.602,98.199 179.001,98.366 179.003 C 98.535 179.005,98.532 179.038,98.352 179.151 C 98.211 179.241,98.153 179.466,98.203 179.727 C 98.248 179.963,98.226 180.120,98.154 180.075 C 97.907 179.923,97.996 184.597,98.246 184.939 C 98.458 185.229,98.836 185.254,103.945 185.310 C 117.295 185.456,127.264 185.450,127.562 185.295 C 127.780 185.182,127.840 185.188,127.761 185.315 C 127.681 185.445,128.793 185.498,131.616 185.500 C 137.295 185.505,146.649 185.626,152.125 185.765 C 156.113 185.866,156.834 185.849,156.836 185.651 C 156.838 185.487,156.875 185.474,156.961 185.610 C 157.049 185.747,158.115 185.795,160.693 185.776 C 162.678 185.762,164.266 185.807,164.223 185.877 C 164.180 185.947,167.056 186.007,170.614 186.011 C 176.791 186.018,180.855 186.062,193.917 186.267 C 198.055 186.332,199.677 186.308,199.500 186.182 C 199.282 186.028,199.286 186.005,199.528 186.003 C 199.681 186.001,199.844 186.094,199.890 186.208 C 199.954 186.365,200.018 186.355,200.151 186.167 C 200.283 185.981,200.329 185.973,200.331 186.136 C 200.333 186.303,200.744 186.357,202.042 186.360 C 202.981 186.363,206.145 186.397,209.071 186.436 C 213.253 186.491,214.422 186.461,214.527 186.295 C 214.619 186.150,214.662 186.145,214.664 186.277 C 214.666 186.418,215.925 186.474,219.375 186.485 C 222.526 186.496,224.001 186.446,223.833 186.336 C 223.658 186.221,223.647 186.171,223.797 186.169 C 223.914 186.168,224.053 186.278,224.105 186.414 C 224.187 186.628,225.528 186.664,234.142 186.686 C 239.610 186.701,247.233 186.754,251.083 186.805 C 276.888 187.147,283.167 187.163,283.167 186.888 C 283.167 186.766,283.281 186.667,283.422 186.667 C 283.648 186.667,283.668 185.671,283.596 177.708 C 283.483 165.035,283.491 165.239,283.083 165.299 C 282.900 165.326,282.563 165.363,282.333 165.382 C 281.926 165.416,281.917 165.445,281.945 166.667 C 281.996 168.852,282.007 185.381,281.959 185.430 C 281.794 185.595,259.579 185.422,256.938 185.235 C 255.785 185.154,255.427 185.181,255.315 185.357 C 255.226 185.497,255.171 185.510,255.169 185.391 C 255.167 185.250,253.650 185.201,249.438 185.206 C 246.288 185.210,243.628 185.162,243.527 185.100 C 243.427 185.038,240.736 184.985,237.547 184.983 C 234.359 184.981,229.488 184.942,226.724 184.897 C 223.290 184.841,221.663 184.870,221.589 184.991 C 221.529 185.087,221.391 185.166,221.282 185.164 C 221.163 185.163,221.184 185.098,221.333 185.003 C 221.499 184.898,220.771 184.833,219.167 184.810 C 216.741 184.775,209.100 184.678,196.833 184.527 C 181.697 184.340,171.263 184.351,171.013 184.553 C 170.848 184.686,170.806 184.689,170.882 184.562 C 171.027 184.319,165.618 184.093,164.417 184.291 C 163.958 184.367,163.358 184.378,163.083 184.317 C 162.132 184.106,160.301 184.146,160.439 184.375 C 160.538 184.541,160.512 184.541,160.310 184.378 C 160.124 184.227,158.760 184.167,155.153 184.151 C 150.605 184.131,146.814 184.090,128.833 183.862 C 125.121 183.815,118.997 183.770,115.224 183.763 C 111.452 183.756,108.402 183.690,108.447 183.617 C 108.492 183.544,106.741 183.493,104.556 183.503 C 102.371 183.513,100.407 183.517,100.191 183.511 C 99.808 183.500,99.802 183.474,99.903 182.333 C 99.982 181.447,99.956 181.166,99.795 181.164 C 99.653 181.162,99.642 181.122,99.763 181.039 C 100.034 180.855,100.065 179.144,99.801 178.977 C 99.658 178.886,99.650 178.838,99.776 178.836 C 99.911 178.834,99.973 178.204,99.982 176.741 C 99.990 175.591,99.941 174.684,99.873 174.725 C 99.805 174.767,99.745 173.177,99.738 171.192 C 99.715 164.125,99.512 158.424,99.271 158.033 C 99.201 157.920,99.234 157.833,99.348 157.833 C 99.502 157.833,99.524 157.171,99.441 155.042 C 99.381 153.506,99.303 150.900,99.268 149.250 C 99.172 144.815,99.104 144.231,98.777 145.042 C 98.710 145.208,98.690 145.208,98.680 145.042 C 98.659 144.719,98.334 144.796,98.328 145.125 C 98.323 145.397,98.308 145.397,98.110 145.137 C 97.987 144.975,97.812 144.910,97.693 144.984 " stroke="none" fill="#a45435" fill-rule="evenodd"></path><path id="path3" d="M138.389 151.595 C 138.275 151.837,138.260 152.038,138.353 152.096 C 138.438 152.148,138.494 152.130,138.478 152.054 C 138.461 151.978,138.506 151.782,138.577 151.618 C 138.778 151.158,138.605 151.137,138.389 151.595 M234.667 151.750 C 234.667 151.887,234.742 152.000,234.833 152.000 C 234.925 152.000,235.000 151.887,235.000 151.750 C 235.000 151.612,234.925 151.500,234.833 151.500 C 234.742 151.500,234.667 151.612,234.667 151.750 M258.211 168.636 C 258.093 168.710,258.289 168.763,258.669 168.758 C 259.034 168.754,259.333 168.694,259.333 168.625 C 259.334 168.460,258.474 168.469,258.211 168.636 M163.125 184.287 C 163.423 184.324,163.910 184.324,164.208 184.287 C 164.506 184.250,164.262 184.220,163.667 184.220 C 163.071 184.220,162.827 184.250,163.125 184.287 " stroke="none" fill="#6c743c" fill-rule="evenodd"></path><path id="path4" d="M119.127 185.451 C 119.334 185.491,119.634 185.490,119.794 185.448 C 119.953 185.406,119.783 185.374,119.417 185.375 C 119.050 185.377,118.920 185.411,119.127 185.451 M219.458 186.624 C 220.215 186.655,221.452 186.655,222.208 186.624 C 222.965 186.593,222.346 186.568,220.833 186.568 C 219.321 186.568,218.702 186.593,219.458 186.624 " stroke="none" fill="#80643c" fill-rule="evenodd"></path></g></svg>